<svg fill="none" height="26" viewBox="0 0 113 26" width="113" xmlns="http://www.w3.org/2000/svg"><g fill="#fff"><path d="m40.343 25.0002h4.192v-10.208c0-1.1307.3094-2.0374.928-2.72.6187-.6827 1.4294-1.024 2.432-1.024 1.024 0 1.8347.3413 2.432 1.024.6187.6613.928 1.568.928 2.72v10.208h4.192v-10.208c0-1.1307.3094-2.0374.928-2.72.6187-.6827 1.4294-1.024 2.432-1.024 1.024 0 1.8347.3413 2.432 1.024.6187.6613.928 1.568.928 2.72v10.208h4.192v-11.2c0-1.3014-.288-2.4427-.864-3.424-.5546-1.00271-1.312-1.78138-2.272-2.33604-.96-.55467-2.0586-.832-3.296-.832-1.152 0-2.1973.23466-3.136.704-.9173.46933-1.6746 1.17333-2.272 2.11204-.512-.85338-1.248-1.53604-2.208-2.04804-.9386-.512-1.9946-.768-3.168-.768-1.088 0-2.0586.21333-2.912.64-.8533.42666-1.504 1.06666-1.952 1.92v-2.176h-3.936z"/><path d="m69.9055 5.64016h4.192v-4.48h-4.192zm0 19.36004h4.192v-17.40804h-4.192z"/><path d="m77.968 25.0002h4.192v-9.696c0-1.3227.3627-2.3467 1.088-3.072.7467-.7467 1.7067-1.12 2.88-1.12h1.504v-3.71204h-1.024c-1.0666 0-2.0053.192-2.816.576-.8106.384-1.44 1.07733-1.888 2.08004v-2.46404h-3.936z"/><path d="m95.2168 25.3842c2.2613 0 4.0746-.7467 5.4402-2.24v1.856h3.968v-11.584c0-1.216-.31-2.2934-.928-3.232-.619-.93871-1.472-1.66404-2.56-2.17604-1.067-.53334-2.3149-.8-3.7442-.8-1.7494 0-3.3067.416-4.672 1.248-1.3654.832-2.304 1.93064-2.816 3.29604l3.424 1.664c.32-.7894.8213-1.4187 1.504-1.888.6826-.4907 1.4826-.736 2.4-.736.96 0 1.728.256 2.304.768.5972.4906.8962 1.1093.8962 1.856v.576l-5.1842.832c-2.048.3413-3.5627.992-4.544 1.952-.9814.96-1.472 2.1653-1.472 3.616 0 1.536.544 2.752 1.632 3.648s2.5386 1.344 4.352 1.344zm-1.632-5.152c0-1.216.8213-1.984 2.464-2.304l4.3842-.736v.704c0 1.1946-.416 2.208-1.2482 3.04-.8107.832-1.8774 1.248-3.2 1.248-.704 0-1.28-.1707-1.728-.512-.448-.3627-.672-.8427-.672-1.44z"/><path d="m108.499 5.64016h4.192v-4.48h-4.192zm0 19.36004h4.192v-17.40804h-4.192z"/></g><path d="m33.9801 7.02v-.02c.0211 9.94-8.4867 18-18.9789 18v-4c8.17 0 14.7778-6.28 14.7778-14h4.2222z" fill="#e21949"/><path d="m25.5899 9.97275.0105-.01703c-5.1964 8.47358-16.66772 10.87238-25.60034414 5.36828l2.09835414-3.4054c6.95558 4.2859 15.87559 2.4057 19.92539-4.16673l3.5946 2.21493z" fill="#e21949"/></svg>